<svg width="160" height="40" viewBox="0 0 160 40" fill="none" xmlns="http://www.w3.org/2000/svg">
  <!-- Amp mark -->
  <g>
    <path d="M3.76879 28.3015L8.49839 23.505L10.2196 30.0399L12.72 29.3561L10.2288 19.8675L0.890876 17.3384L0.22594 19.8933L6.65134 21.6388L1.94138 26.4282L3.76879 28.3015Z" fill="#0066cc"/>
    <path d="M17.4074 22.7414L19.9078 22.0575L17.4167 12.569L8.07873 10.0399L7.4138 12.5948L15.2992 14.7369L17.4074 22.7414Z" fill="#0066cc"/>
    <path d="M13.8184 26.3883L16.3188 25.7044L13.8276 16.2159L4.48971 13.6868L3.82477 16.2417L11.7101 18.3838L13.8184 26.3883Z" fill="#0066cc"/>
  </g>
  
  <!-- Text "Amp" -->
  <g transform="translate(35, 12)">
    <path d="M8.64 16H5.04L7.84 8.16L8.64 16ZM11.92 20H13.76L9.6 4H6.08L1.92 20H3.76L4.6 17.6H10.08L11.92 20Z" fill="var(--text-primary, #333)"/>
    <path d="M23.84 14.08C23.84 15.44 23.52 16.6 22.88 17.56C22.24 18.52 21.36 19.24 20.24 19.72C19.12 20.2 17.84 20.44 16.4 20.44C15.76 20.44 15.08 20.4 14.36 20.32V4.8C15.08 4.72 15.76 4.68 16.4 4.68C17.84 4.68 19.12 4.92 20.24 5.4C21.36 5.88 22.24 6.6 22.88 7.56C23.52 8.52 23.84 9.68 23.84 11.04V14.08ZM21.92 11.04C21.92 9.36 21.44 8.08 20.48 7.2C19.52 6.32 18.16 5.88 16.4 5.88C16.08 5.88 15.76 5.9 15.44 5.94V19.22C15.76 19.26 16.08 19.28 16.4 19.28C18.16 19.28 19.52 18.84 20.48 17.96C21.44 17.08 21.92 15.8 21.92 14.12V11.04Z" fill="var(--text-primary, #333)"/>
    <path d="M37.12 14.08C37.12 15.44 36.8 16.6 36.16 17.56C35.52 18.52 34.64 19.24 33.52 19.72C32.4 20.2 31.12 20.44 29.68 20.44C29.04 20.44 28.36 20.4 27.64 20.32V4.8C28.36 4.72 29.04 4.68 29.68 4.68C31.12 4.68 32.4 4.92 33.52 5.4C34.64 5.88 35.52 6.6 36.16 7.56C36.8 8.52 37.12 9.68 37.12 11.04V14.08ZM35.2 11.04C35.2 9.36 34.72 8.08 33.76 7.2C32.8 6.32 31.44 5.88 29.68 5.88C29.36 5.88 29.04 5.9 28.72 5.94V19.22C29.04 19.26 29.36 19.28 29.68 19.28C31.44 19.28 32.8 18.84 33.76 17.96C34.72 17.08 35.2 15.8 35.2 14.12V11.04Z" fill="var(--text-primary, #333)"/>
  </g>
</svg>
